<svg xmlns="http://www.w3.org/2000/svg" viewBox="0 0 48 48"><defs><style>.cls-1{fill:#201602;}</style></defs><title>Asset 20ldpi</title><g id="Layer_2" data-name="Layer 2"><g id="layer_1-2" data-name="layer 1"><rect class="cls-1" x="35.47" y="4.49" width="13.28" height="2" transform="translate(7.39 29.94) rotate(-42.59)"/><path class="cls-1" d="M20.24,17.76l-1.79-.89,4.66-9.32a1,1,0,0,1,1.23-.49l8.18,3-.68,1.87L24.5,9.24Z"/><path class="cls-1" d="M1.88,30.47.12,29.53l8-15a1,1,0,0,1,.6-.49,1,1,0,0,1,.77.09l6.37,3.54-1,1.75L9.4,16.37Z"/><path class="cls-1" d="M48,9H46V2H39V0h8a1,1,0,0,1,1,1Z"/><path class="cls-1" d="M35,16a4,4,0,1,1,4-4A4,4,0,0,1,35,16Zm0-6a2,2,0,1,0,2,2A2,2,0,0,0,35,10Z"/><path class="cls-1" d="M18,24a4,4,0,1,1,4-4A4,4,0,0,1,18,24Zm0-6a2,2,0,1,0,2,2A2,2,0,0,0,18,18Z"/><rect class="cls-1" x="19" y="46" width="12" height="2"/><rect class="cls-1" x="36" y="46" width="12" height="2"/><rect class="cls-1" y="46" width="12" height="2"/><rect class="cls-1" x="17" y="42" width="12" height="2"/><rect class="cls-1" x="35" y="42" width="12" height="2"/><rect class="cls-1" x="1" y="42" width="12" height="2"/><rect class="cls-1" x="19" y="38" width="12" height="2"/><rect class="cls-1" x="36" y="38" width="12" height="2"/><rect class="cls-1" y="38" width="12" height="2"/><rect class="cls-1" y="34" width="12" height="2"/><rect class="cls-1" x="18" y="34" width="12" height="2"/><rect class="cls-1" x="34" y="34" width="12" height="2"/><rect class="cls-1" x="17" y="30" width="12" height="2"/><rect class="cls-1" x="18" y="26" width="12" height="2"/><rect class="cls-1" x="35" y="30" width="12" height="2"/><rect class="cls-1" x="35" y="26" width="12" height="2"/><rect class="cls-1" x="36" y="22" width="12" height="2"/><rect class="cls-1" x="35" y="18" width="12" height="2"/></g></g></svg>